{"title":"Irrational.Man.2015.BRRip.480p.x264.AAC-VYTO [P2PDL]","uid":13091751,"size":379802353,"categoryP":"video","categoryS":"movies","magnet":"?xt=urn:btih:6255cd003494dd7e707fd28f4ff2d9674a903a90&amp;dn=Irrational.Man.2015.BRRip.480p.x264.AAC-VYTO+%5BP2PDL%5D&amp;tr=udp%3A%2F%2Ftracker.leechers-paradise.org%3A6969&amp;tr=udp%3A%2F%2Fzer0day.ch%3A1337&amp;tr=udp%3A%2F%2Fopen.demonii.com%3A1337&amp;tr=udp%3A%2F%2Ftracker.coppersurfer.tk%3A6969&amp;tr=udp%3A%2F%2Fexodus.desync.com%3A6969","seeders":0,"leechers":1,"uploader":"VYTOP2PDL","files":7,"time":1451056035,"description":"Irrational.Man.2015.BRRip.480p.x264.AAC-VYTO\r\n\r\n\r\nGenre:  Drama, Mystery   \nhttp://www.imdb.com/title/tt3715320/\r\n\r\n\r\nFormat                                   : MPEG-4)\r\nFile size                                : 352 MiB\r\nDuration                                 : 1h 34mn\r\nOverall bit rate                         : 518 Kbps\r\n\r\nVideo\r\nFormat                                   : AVC\r\nBit rate                                 : 483 Kbps\r\nWidth                                    : 720 pixels\r\nHeight                                   : 304 pixels\r\nDisplay aspect ratio                     : 2.35:1\r\nFrame rate mode                          : Constant\r\nFrame rate                               : 23.976 \r\nBit depth                                : 8 bits\r\nStream size                              : 328 MiB (93%)\r\nWriting library                          : x264\r\n\r\nAudio\r\nFormat                                   : AAC\r\nBit rate mode                            : Variable\r\nBit rate                                 : 32.0 Kbps\r\nChannel(s)                               : 2 channels\r\nChannel positions                        : Front: L R \r\nSampling rate                            : 48.0 KHz\r\nFrame rate                               : 23.438 fps\r\nStream size                              : 21.7 MiB (6%)\r\nLanguage                                 : English\r\n\r\nSubtitle                                 : Yes (English)\r\n\r\nScreen Shot: (Click to view)\r\n \nhttp://ititli.com/RI \nhttp://ititli.com/RO \nhttp://ititli.com/y9 \nhttp://ititli.com/yX \nhttp://ititli.com/yq \nhttp://ititli.com/yr \nhttp://ititli.com/y1 \nhttp://ititli.com/yT\r\n\r\n----------------------------------------------------------------------------------------------------\r\n\r\n\r\nEncoder Notes: Looking For Early Access To Anything You Can Provide WEBDL, DVDScr, DVDR, BluRay,\r\nDirect Audio, Music Releases and Seedboxes. If You Got anything to offer please contact us.\r\n\r\nSupport us by donating BC - 1FgwdzPsd1y25Gea8wP1qni35uGCtmkRCD\r\n\r\nSend some love!\r\nFind us and join us!","torrent":{"xt":"urn:btih:6255cd003494dd7e707fd28f4ff2d9674a903a90","amp;dn":"Irrational.Man.2015.BRRip.480p.x264.AAC-VYTO+%5BP2PDL%5D","amp;tr":["udp%3A%2F%2Ftracker.leechers-paradise.org%3A6969","udp%3A%2F%2Fzer0day.ch%3A1337","udp%3A%2F%2Fopen.demonii.com%3A1337","udp%3A%2F%2Ftracker.coppersurfer.tk%3A6969","udp%3A%2F%2Fexodus.desync.com%3A6969"],"infoHash":"6255cd003494dd7e707fd28f4ff2d9674a903a90","infoHashBuffer":{"type":"Buffer","data":[98,85,205,0,52,148,221,126,112,127,210,143,79,242,217,103,74,144,58,144]},"announce":[],"urlList":[]}}